<svg width="77" height="64" viewBox="0 0 77 64" fill="none" xmlns="http://www.w3.org/2000/svg">
<path fill-rule="evenodd" clip-rule="evenodd" d="M17.6323 9.77466C21.5705 6.55984 28.7697 2.90439 37.4591 2.49891C46.1062 2.0954 56.2952 4.90555 66.2999 14.7141C66.4727 14.8834 66.6913 14.9774 66.9149 14.9964C65.7804 15.3829 64.6373 16.8641 64.0919 18.8213C63.3882 21.3463 63.9458 23.7076 65.3372 24.0953C66.7286 24.483 68.4269 22.7504 69.1305 20.2254C69.4107 19.2201 69.4909 18.2408 69.3982 17.4016C70.2047 17.6514 71.1815 17.7578 72.2216 17.6729C74.8341 17.4596 76.8567 16.1196 76.7391 14.68C76.6216 13.2404 74.4084 12.2463 71.7959 12.4596C70.1821 12.5914 68.7935 13.1531 67.9953 13.9025C67.9733 13.6768 67.8747 13.4572 67.7001 13.2859C57.3048 3.09445 46.5771 0.0712525 37.3659 0.501082C28.2284 0.927471 20.6483 4.74713 16.4113 8.18977C7.15269 14.1772 2.92311 23.0663 1.39045 31.6747C-0.141057 40.2767 1.00431 48.6612 2.54214 53.7873C2.70084 54.3163 3.25832 54.6165 3.78732 54.4578C4.31631 54.2991 4.61649 53.7416 4.4578 53.2126C2.99563 48.3388 1.89099 40.2733 3.35949 32.0253C4.82424 23.7983 8.83293 15.4529 17.5417 9.84057L17.5889 9.81016L17.6323 9.77466ZM44.276 23.0736C44.6111 22.9374 44.9936 22.9928 45.2763 23.2184C46.2352 23.9837 47.4089 25.4325 47.9561 27.3761C48.5141 29.3577 48.4047 31.8026 46.8467 34.462C46.8169 34.5129 46.7826 34.5611 46.7442 34.606C45.94 35.5473 43.7902 37.1931 40.7706 37.5028V40.5998L42.761 43.8356C43.8613 43.3648 45.5196 43.2094 47.5456 44.0229L49.7237 41.8984C50.0116 41.6176 50.4398 41.5366 50.8104 41.6928C51.181 41.849 51.4219 42.2121 51.4219 42.6143V48.7723C53.9879 48.3916 57.2469 48.4814 59.6805 49.9891C61.1464 50.8973 62.2838 52.3058 62.7584 54.3312C63.0974 55.7783 63.0894 57.5001 62.673 59.534C63.7104 58.4267 64.5988 56.8499 64.8947 54.7676C65.3827 51.3334 64.2834 46.3356 59.2018 39.6024C58.8691 39.1616 58.9568 38.5345 59.3976 38.2018C59.8384 37.8691 60.4655 37.9568 60.7982 38.3976C66.0634 45.3742 67.4645 50.8993 66.8748 55.049C66.2843 59.2037 63.7225 61.7904 61.4767 62.897C61.1974 63.0346 60.885 63.0299 60.6219 62.9109C59.3815 63.3561 57.7228 63.7952 56.0126 63.9455C53.9102 64.1302 51.5009 63.897 49.7728 62.4221C47.7043 60.6567 46.9054 57.7396 47.7269 55.4284C48.1479 54.2439 48.9975 53.2238 50.2919 52.6507C51.5721 52.0839 53.1894 51.9959 55.0988 52.4655C55.6351 52.5974 55.963 53.1391 55.8311 53.6754C55.6992 54.2117 55.1575 54.5395 54.6212 54.4076C53.01 54.0114 51.8685 54.1399 51.1016 54.4794C50.3491 54.8127 49.8635 55.3889 49.6114 56.0983C49.0865 57.5749 49.5892 59.636 51.0711 60.9008C52.1834 61.8501 53.9162 62.122 55.8376 61.9532C57.5025 61.8069 59.1378 61.3434 60.2596 60.9121C61.0743 58.2105 61.1481 56.2259 60.8111 54.7875C60.4637 53.3048 59.665 52.3323 58.6272 51.6893C56.4585 50.3458 53.1423 50.3915 50.6396 50.9495C50.3434 51.0155 50.0333 50.9435 49.7965 50.7537C49.5597 50.5639 49.4219 50.2769 49.4219 49.9734V44.9866L48.4574 45.9275C48.1551 46.2223 47.7003 46.2955 47.3208 46.1104C44.787 44.8747 43.367 45.698 43.1317 45.9275C42.9142 46.1396 42.6121 46.2414 42.3106 46.2041C42.0091 46.1667 41.7409 45.9943 41.5817 45.7356L40.7706 44.417V56C40.7706 56.5523 40.3229 57 39.7706 57C39.2183 57 38.7706 56.5523 38.7706 56V40.8827V36.5538C38.7706 36.0015 39.2183 35.5538 39.7706 35.5538C42.5347 35.5538 44.516 34.0861 45.1683 33.3695C46.4043 31.2153 46.4369 29.3599 46.031 27.9181C45.6925 26.7158 45.038 25.7665 44.4473 25.1628L39.7033 27.0909C39.4619 27.189 39.1917 27.189 38.9503 27.0909L33.9695 25.0666C30.2615 26.3771 28.4267 28.7975 27.5942 31.3061C26.7836 33.7489 26.9162 36.3136 27.3191 38.0521C27.474 38.1041 27.6182 38.1948 27.7365 38.3236C27.8559 38.4536 27.9344 38.6066 27.9726 38.7668C28.4313 39.1203 28.9684 39.4338 29.533 39.6621C30.4669 40.0396 31.3467 40.1336 32.0047 39.9359C32.5879 39.7606 33.1406 39.3165 33.4284 38.2307C33.7324 37.0841 33.7229 35.2513 33.0307 32.4661C32.8975 31.9301 33.224 31.3877 33.76 31.2544C34.296 31.1212 34.8384 31.4477 34.9716 31.9837C35.6996 34.9127 35.79 37.1274 35.3617 38.7432C34.9172 40.4198 33.9055 41.4529 32.5804 41.8512C31.33 42.227 29.9575 41.991 28.7833 41.5163C28.1204 41.2483 27.4796 40.8882 26.9074 40.4681C23.9051 43.4246 21.8448 46.6431 21.0401 48.1632C21.0211 48.2786 20.9813 48.3926 20.9194 48.4998C19.7762 50.4808 19.1899 53.4395 19.0395 56.2801C18.9651 57.6842 18.9992 59.0228 19.1131 60.1464C19.1897 60.903 19.2994 61.5286 19.4227 62H25C25.5523 62 26 62.4477 26 63C26 63.5523 25.5523 64 25 64H19.0229C19.0075 64.0004 18.9921 64.0004 18.9766 64H18.7042C18.3882 64 18.0961 63.8512 17.9097 63.6073C16.6951 62.995 15.2754 61.9318 14.2729 60.3847C13.0285 58.4642 12.4739 55.8635 13.6424 52.6575C13.8316 52.1387 14.4055 51.8713 14.9244 52.0605C15.4433 52.2496 15.7106 52.8236 15.5215 53.3424C14.5694 55.9546 15.0457 57.8994 15.9514 59.2971C16.3003 59.8356 16.7197 60.3021 17.1616 60.6961C17.1479 60.5813 17.1351 60.4652 17.1233 60.348C16.9982 59.1136 16.963 57.6718 17.0423 56.1744C17.1926 53.3352 17.7619 50.1592 19.0195 47.8024C19.0364 47.7189 19.0642 47.6363 19.1038 47.5564C19.8681 46.0121 22.1247 42.3696 25.5091 39.0382C25.5031 39.0204 25.4975 39.0025 25.4925 38.9843C24.934 36.961 24.6704 33.767 25.696 30.6762C26.7394 27.532 29.1081 24.5394 33.692 23.049C33.9163 22.9761 34.1592 22.9848 34.3777 23.0736L39.3268 25.085L44.276 23.0736Z" fill="var(--primary-yellow)"/>
</svg>
