<svg width="77" height="64" viewBox="0 0 77 64" fill="none" xmlns="http://www.w3.org/2000/svg">
<path d="M24.3335 62.5382H18.0377C16.9884 60.114 16.8684 51.9018 19.3868 47.5382" stroke="#FFC100" stroke-width="2" stroke-linecap="round" stroke-linejoin="round"/>
<path d="M19.3335 47.5382C20.1113 45.9668 22.6002 41.9668 26.3335 38.5382" stroke="#FFC100" stroke-width="2" stroke-linecap="round" stroke-linejoin="round"/>
<path d="M33.3347 31.7631C36.175 43.1914 28.4528 41.2867 25.79 38.2565C24.7544 34.5048 24.8136 26.3087 33.3347 23.5382L38.6603 25.7027L43.986 23.5382C45.6133 24.8369 48.1577 28.6463 45.3174 33.4947C44.5777 34.3605 42.2995 36.092 39.1041 36.092V40.4209M39.1041 55.5382V40.4209M39.1041 40.4209L41.7669 44.7498C42.3587 44.1727 44.2523 43.3646 47.0926 44.7498L49.7554 42.1525V49.5116C54.9332 48.3573 64.3122 49.0788 60.4067 61.1997C58.0398 62.2098 52.5958 63.6239 49.7554 61.1997C46.205 58.1695 47.1523 51.2432 54.1935 52.9748" stroke="#FFC100" stroke-width="2" stroke-linecap="round" stroke-linejoin="round"/>
<path d="M18.3335 62.5382C15.9772 61.6291 11.7948 58.3564 13.9155 52.5382" stroke="#FFC100" stroke-width="2" stroke-linecap="round"/>
<path d="M60.3682 61.5382C64.3344 59.584 69.6802 52.248 59.3335 38.5382" stroke="#FFC100" stroke-width="2" stroke-linecap="round"/>
<path d="M71.1701 12.4962C72.4086 12.3951 73.5279 12.5832 74.3318 12.9443C75.1542 13.3137 75.5372 13.8044 75.5743 14.2589C75.6114 14.7135 75.3131 15.2598 74.5615 15.7577C73.8268 16.2444 72.7529 16.6117 71.5144 16.7128C70.2759 16.8139 69.1566 16.6258 68.3527 16.2647C67.5303 15.8953 67.1473 15.4046 67.1102 14.9501C67.0731 14.4955 67.3714 13.9492 68.123 13.4513C68.8576 12.9646 69.9316 12.5973 71.1701 12.4962Z" fill="#FFC100" stroke="#FFC100"/>
<path d="M63.9068 18.4937C63.5732 19.6908 63.5462 20.8254 63.7487 21.6831C63.9559 22.5605 64.3653 23.0294 64.8046 23.1518C65.244 23.2743 65.8368 23.0846 66.4679 22.4408C67.0848 21.8115 67.6486 20.8264 67.9821 19.6294C68.3157 18.4323 68.3426 17.2977 68.1401 16.44C67.9329 15.5626 67.5236 15.0937 67.0842 14.9713C66.6449 14.8488 66.052 15.0385 65.4209 15.6823C64.8041 16.3116 64.2403 17.2967 63.9068 18.4937Z" fill="#FFC100" stroke="#FFC100"/>
<path d="M2.83333 53.0382C-0.166667 43.0382 -1.66667 20.1382 16.3333 8.53819C24.5 1.87153 45.9334 -6.46181 66.3334 13.5382" stroke="#FFC100" stroke-width="2" stroke-linecap="round"/>
</svg>
